<?xml version="1.0" encoding="UTF-8" standalone="no"?>
<svg
   xmlns:dc="http://purl.org/dc/elements/1.1/"
   xmlns:cc="http://creativecommons.org/ns#"
   xmlns:rdf="http://www.w3.org/1999/02/22-rdf-syntax-ns#"
   xmlns:svg="http://www.w3.org/2000/svg"
   xmlns="http://www.w3.org/2000/svg"
   viewBox="0 0 174.34534 48.088932"
   height="48.088932"
   width="174.34534"
   xml:space="preserve"
   id="svg2"
   version="1.1"><metadata
     id="metadata8"><rdf:RDF><cc:Work
         rdf:about=""><dc:format>image/svg+xml</dc:format><dc:type
           rdf:resource="http://purl.org/dc/dcmitype/StillImage" /></cc:Work></rdf:RDF></metadata><defs
     id="defs6"><linearGradient
       id="linearGradient30"
       spreadMethod="pad"
       gradientTransform="matrix(174.56903,174.56903,-174.56903,174.56903,-22.140541,-68.710861)"
       gradientUnits="userSpaceOnUse"
       y2="0"
       x2="1"
       y1="0"
       x1="0"><stop
         id="stop24"
         offset="0"
         style="stop-opacity:1;stop-color:#50ade5" /><stop
         id="stop26"
         offset="0.646341"
         style="stop-opacity:1;stop-color:#3871c1" /><stop
         id="stop28"
         offset="1"
         style="stop-opacity:1;stop-color:#3871c1" /></linearGradient></defs><g
     transform="matrix(1.3333333,0,0,-1.3333333,0,48.088933)"
     id="g10"><g
       id="g12"><g
         id="g14"><g
           id="g20"><g
             id="g22"><path
               id="path32"
               style="fill:url(#linearGradient30);stroke:none"
               d="M 0,0 H 130.759 V 36.067 H 0 Z" /></g></g><g
           transform="translate(82.6359,23.1959)"
           id="g34"><path
             id="path36"
             style="fill:#ffffff;fill-opacity:1;fill-rule:nonzero;stroke:none"
             d="M 0,0 V -0.021 C 0.01,0.003 0.017,0.03 0.025,0.056 0.019,0.036 0.008,0.02 0,0" /></g><g
           transform="translate(82.6359,14.298)"
           id="g38"><path
             id="path40"
             style="fill:#ffffff;fill-opacity:1;fill-rule:nonzero;stroke:none"
             d="M 0,0 C 0.014,-0.034 0.031,-0.063 0.046,-0.098 0.028,-0.057 0.017,-0.013 0,0.029 Z" /></g><g
           transform="translate(130.1779,35.6413)"
           id="g42"><path
             id="path44"
             style="fill:#ffffff;fill-opacity:1;fill-rule:nonzero;stroke:none"
             d="m 0,0 h -4.756 v -0.848 h 4.76 z" /></g><g
           transform="translate(130.1818,34.7936)"
           id="g46"><path
             id="path48"
             style="fill:#ffffff;fill-opacity:1;fill-rule:nonzero;stroke:none"
             d="M 0,0 H -4.761 V -25.143 H 0.128 Z" /></g><g
           transform="translate(120.506,21.0241)"
           id="g50"><path
             id="path52"
             style="fill:#ffffff;fill-opacity:1;fill-rule:nonzero;stroke:none"
             d="M 0,0 V 0.002 L -7.711,-11.373 Z" /></g><g
           transform="translate(120.506,9.6515)"
           id="g54"><path
             id="path56"
             style="fill:#ffffff;fill-opacity:1;fill-rule:nonzero;stroke:none"
             d="M 0,0 V 11.373 L -7.711,0 Z" /></g><g
           transform="translate(104.8009,35.567)"
           id="g58"><path
             id="path60"
             style="fill:#ffffff;fill-opacity:1;fill-rule:nonzero;stroke:none"
             d="M 0,0 C -1.681,0 -3.127,-0.266 -4.396,-0.773 H 4.451 C 3.16,-0.281 1.679,0 0,0" /></g><g
           transform="translate(86.2794,14.6691)"
           id="g62"><path
             id="path64"
             style="fill:#ffffff;fill-opacity:1;fill-rule:nonzero;stroke:none"
             d="m 0,0 c -4.474,0 -7.541,3.274 -7.541,8.214 0,4.472 3.174,7.744 7.541,7.744 4.627,0 7.953,-3.272 7.953,-7.796 C 7.953,3.118 4.885,0 0,0 m 20.512,-5.349 -0.158,-0.119 c 0.447,0.611 0.916,1.252 1.388,1.905 l 6.127,8.891 c 0.873,1.686 1.352,3.377 1.352,5.302 0,0.459 -0.037,0.914 -0.088,1.362 -0.014,0.11 -0.029,0.218 -0.043,0.325 -0.066,0.445 -0.148,0.882 -0.262,1.308 -0.008,0.024 -0.017,0.048 -0.024,0.074 -0.114,0.405 -0.255,0.795 -0.413,1.177 -0.041,0.099 -0.08,0.193 -0.123,0.29 -0.18,0.395 -0.377,0.781 -0.607,1.147 -0.022,0.039 -0.051,0.072 -0.073,0.106 -0.216,0.336 -0.457,0.657 -0.715,0.963 -0.065,0.076 -0.129,0.155 -0.197,0.228 -0.291,0.326 -0.605,0.636 -0.947,0.918 -0.042,0.037 -0.089,0.07 -0.133,0.104 -0.316,0.253 -0.654,0.483 -1.006,0.7 -0.087,0.05 -0.172,0.105 -0.261,0.156 -0.403,0.226 -0.827,0.433 -1.28,0.61 -0.026,0.008 -0.052,0.017 -0.076,0.027 h -8.848 c -0.041,-0.019 -0.086,-0.029 -0.127,-0.047 -0.201,-0.084 -0.394,-0.182 -0.584,-0.277 -0.138,-0.072 -0.278,-0.134 -0.41,-0.207 -0.191,-0.111 -0.369,-0.234 -0.549,-0.354 -0.122,-0.082 -0.249,-0.157 -0.367,-0.244 -0.189,-0.14 -0.364,-0.297 -0.543,-0.452 -0.1,-0.086 -0.203,-0.164 -0.3,-0.255 -0.268,-0.252 -0.526,-0.523 -0.772,-0.812 -0.324,-0.381 -0.611,-0.79 -0.879,-1.215 -2.26,2.407 -5.605,3.859 -9.543,3.859 -6.967,0 -12.322,-5.202 -12.322,-11.907 0,-5.887 3.463,-10.443 8.668,-11.889 0.745,-0.207 1.523,-0.35 2.332,-0.426 0.433,-0.039 0.873,-0.059 1.322,-0.059 7.486,0 12.633,4.992 12.633,12.374 0,0.655 -0.063,1.287 -0.156,1.905 0.156,3.843 2.961,6.151 6.039,6.151 3.568,0 5.543,-2.698 5.543,-5.59 0,-2.22 -0.963,-3.761 -1.637,-4.772 C 21.315,4.125 6.664,-14.244 6.664,-14.244 h 27.563 v 4.598 H 17.551 Z" /></g><g
           transform="translate(74.0079,22.8834)"
           id="g66"><path
             id="path68"
             style="fill:#ffffff;fill-opacity:1;fill-rule:nonzero;stroke:none"
             d="M 0,0 C 0,-5.887 3.465,-10.443 8.67,-11.889 3.465,-10.443 0,-5.887 0,0" /></g><g
           transform="translate(130.3341,5.0236)"
           id="g70"><path
             id="path72"
             style="fill:#ffffff;fill-opacity:1;fill-rule:nonzero;stroke:none"
             d="M 0,0 H -4.912 V -4.571 H 0.021 Z" /></g><g
           transform="translate(10.7184,30.3707)"
           id="g74"><path
             id="path76"
             style="fill:#ffffff;fill-opacity:1;fill-rule:nonzero;stroke:none"
             d="M 0,0 C 1.092,0 2.912,-0.938 4.314,-2.289 L 6.76,1.715 c -1.926,1.82 -3.692,2.703 -5.563,2.703 -2.185,0 -4.418,-1.717 -6.759,-5.824 h -0.102 v 5.355 h -4.629 v -23.342 h 4.629 V -7.176 C -5.664,-3.174 -3.17,0 0,0" /></g><g
           transform="translate(19.9625,25.0133)"
           id="g78"><path
             id="path80"
             style="fill:#ffffff;fill-opacity:1;fill-rule:nonzero;stroke:none"
             d="m 0,0 c 0.623,3.691 2.754,5.771 6.289,5.771 3.275,0 5.303,-2.236 5.459,-5.771 z m 6.186,9.775 c -6.448,0 -10.918,-4.784 -10.918,-11.853 0,-6.447 4.054,-12.427 11.332,-12.427 3.953,0 6.5,0.884 9.306,2.756 v 4.47 c -2.701,-1.767 -5.353,-2.806 -8.162,-2.806 -3.353,0 -5.682,1.345 -6.945,3.97 -0.421,0.875 -0.723,1.891 -0.906,3.049 h 0.002 16.429 c 0,8.628 -3.951,12.841 -10.138,12.841" /></g><g
           transform="translate(20.7614,18.8981)"
           id="g82"><path
             id="path84"
             style="fill:#ffffff;fill-opacity:1;fill-rule:nonzero;stroke:none"
             d="M 0,0 C -0.42,0.875 -0.723,1.892 -0.904,3.049 H -0.906 C -0.723,1.892 -0.421,0.875 0,0" /></g><g
           transform="translate(64.1774,28.9655)"
           id="g86"><path
             id="path88"
             style="fill:#ffffff;fill-opacity:1;fill-rule:nonzero;stroke:none"
             d="M 0,0 C 1.754,3.08 3.449,4.816 5.108,5.492 3.449,4.816 1.754,3.08 0,0 h -0.105 z" /></g><g
           transform="translate(69.7384,30.3717)"
           id="g90"><path
             id="path92"
             style="fill:#ffffff;fill-opacity:1;fill-rule:nonzero;stroke:none"
             d="M 0,0 C 1.094,0 2.912,-0.939 4.315,-2.289 L 6.76,1.715 C 4.836,3.535 3.067,4.418 1.196,4.418 0.649,4.418 0.102,4.311 -0.452,4.086 -2.111,3.41 -3.808,1.674 -5.561,-1.406 h -0.105 v 5.355 h -4.627 v -23.342 h 4.627 V -7.176 C -5.666,-3.174 -3.17,0 0,0" /></g><g
           transform="translate(49.5836,33.9205)"
           id="g94"><path
             id="path96"
             style="fill:#ffffff;fill-opacity:1;fill-rule:nonzero;stroke:none"
             d="m 0,0 c 5.826,-1.21 8.939,-5.143 8.939,-11.453 0,-6.58 -4.339,-11.333 -10.581,-11.901 6.242,0.568 10.581,5.321 10.581,11.901 C 8.939,-5.143 5.826,-1.21 0,0" /></g><g
           transform="translate(39.6452,3.9601)"
           id="g98"><path
             id="path100"
             style="fill:#ffffff;fill-opacity:1;fill-rule:nonzero;stroke:none"
             d="m 0,0 c -0.688,0 -1.245,-0.561 -1.245,-1.247 0,0.686 0.557,1.246 1.245,1.246 0.688,0 1.246,-0.56 1.246,-1.246 C 1.246,-0.561 0.688,0 0,0" /></g><g
           transform="translate(53.7931,22.5182)"
           id="g102"><path
             id="path104"
             style="fill:#ffffff;fill-opacity:1;fill-rule:nonzero;stroke:none"
             d="m 0,0 c 0,-2.756 -1.158,-5.067 -3.041,-6.453 -0.627,-0.462 -1.334,-0.821 -2.105,-1.06 -0.713,-0.219 -1.481,-0.337 -2.29,-0.337 -0.365,0 -0.732,0.023 -1.099,0.068 -0.276,0.033 -0.553,0.079 -0.828,0.136 -0.828,0.173 -1.651,0.455 -2.44,0.834 v 0.001 14.453 h 4.211 0.002 c 2.93,0 5.418,-1.327 6.688,-3.727 C -0.326,2.824 0,1.512 0,0.001 Z m 4.73,-0.051 c 0,6.311 -3.113,10.243 -8.939,11.453 -0.389,0.081 -0.789,0.15 -1.201,0.206 -0.942,0.128 -1.947,0.194 -3.012,0.194 h -8.008 v -33.906 h 4.628 l -0.001,11.135 c 1.768,-0.727 3.172,-1.041 4.68,-1.041 0.432,0 0.856,0.02 1.272,0.058 6.242,0.568 10.581,5.321 10.581,11.901" /></g><g
           transform="translate(52.8903,26.4332)"
           id="g106"><path
             id="path108"
             style="fill:#ffffff;fill-opacity:1;fill-rule:nonzero;stroke:none"
             d="M 0,0 C -1.27,2.4 -3.758,3.727 -6.687,3.727 H -6.689 C -3.758,3.727 -1.27,2.4 0,0" /></g></g></g></g></svg>